<svg xmlns="http://www.w3.org/2000/svg" width="256" height="256"><path fill-opacity=".016" d="M0 128.004v128.004l128.25-.254 128.25-.254.254-127.75L257.008 0H0v128.004m.485.496c0 70.4.119 99.053.265 63.672.146-35.38.146-92.98 0-128C.604 29.153.485 58.1.485 128.5" fill="#1976D2" fill-rule="evenodd"/><path fill-opacity=".032" d="M125 15.57c0 6.24.113 6.553 2.25 6.25 2.021-.287 2.28-.956 2.548-6.57.291-6.109.24-6.25-2.25-6.25-2.472 0-2.548.196-2.548 6.57M123 25c0 1.704.667 2 4.5 2s4.5-.296 4.5-2-.667-2-4.5-2-4.5.296-4.5 2m-3 5c0 1.822.667 2 7.5 2s7.5-.178 7.5-2-.667-2-7.5-2-7.5.178-7.5 2m-10.77 5.423c.336 1.757-.045 2.557-1.383 2.907-2.225.582-2.528 4.67-.347 4.67 1.315 0 1.5 6.825 1.5 55.424 0 38.81.351 56.945 1.172 60.5l1.171 5.076H143.6l1.2-5.81c.848-4.105 1.2-21.832 1.2-60.393 0-47.596.192-54.657 1.5-55.159 2.106-.808 1.871-3.728-.347-4.308-1.338-.35-1.719-1.15-1.383-2.907l.463-2.423h-37.466l.463 2.423M116 45.5c0 1.833.533 2.5 2 2.5s2-.667 2-2.5-.533-2.5-2-2.5-2 .667-2 2.5m9 0c0 2 .5 2.5 2.5 2.5s2.5-.5 2.5-2.5-.5-2.5-2.5-2.5-2.5.5-2.5 2.5m10 0c0 1.833.533 2.5 2 2.5s2-.667 2-2.5-.533-2.5-2-2.5-2 .667-2 2.5m-19 8c0 1.833.533 2.5 2 2.5s2-.667 2-2.5-.533-2.5-2-2.5-2 .667-2 2.5m9 0c0 2 .5 2.5 2.5 2.5s2.5-.5 2.5-2.5-.5-2.5-2.5-2.5-2.5.5-2.5 2.5m10 0c0 1.833.533 2.5 2 2.5s2-.667 2-2.5-.533-2.5-2-2.5-2 .667-2 2.5m-19 8c0 1.833.533 2.5 2 2.5s2-.667 2-2.5-.533-2.5-2-2.5-2 .667-2 2.5m9 0c0 2 .5 2.5 2.5 2.5s2.5-.5 2.5-2.5-.5-2.5-2.5-2.5-2.5.5-2.5 2.5m10 0c0 1.833.533 2.5 2 2.5s2-.667 2-2.5-.533-2.5-2-2.5-2 .667-2 2.5m-19 8c0 1.833.533 2.5 2 2.5s2-.667 2-2.5-.533-2.5-2-2.5-2 .667-2 2.5m9 0c0 2 .5 2.5 2.5 2.5s2.5-.5 2.5-2.5-.5-2.5-2.5-2.5-2.5.5-2.5 2.5m10 0c0 1.833.533 2.5 2 2.5s2-.667 2-2.5-.533-2.5-2-2.5-2 .667-2 2.5m-19 8c0 1.833.533 2.5 2 2.5s2-.667 2-2.5-.533-2.5-2-2.5-2 .667-2 2.5m9 0c0 2 .5 2.5 2.5 2.5s2.5-.5 2.5-2.5-.5-2.5-2.5-2.5-2.5.5-2.5 2.5m10 0c0 1.833.533 2.5 2 2.5s2-.667 2-2.5-.533-2.5-2-2.5-2 .667-2 2.5m-46.299-.868c-.385.386-.701 1.976-.701 3.535 0 2.374.415 2.833 2.563 2.833 2.289 0 2.53-.348 2.25-3.242-.298-3.091-2.484-4.753-4.112-3.126M162 79.5c0 3.181.277 3.599 2.204 3.32 3.194-.464 3.194-6.176 0-6.64-1.927-.279-2.204.139-2.204 3.32m-46 6c0 1.833.533 2.5 2 2.5s2-.667 2-2.5-.533-2.5-2-2.5-2 .667-2 2.5m9 0c0 2 .5 2.5 2.5 2.5s2.5-.5 2.5-2.5-.5-2.5-2.5-2.5-2.5.5-2.5 2.5m10 0c0 1.833.533 2.5 2 2.5s2-.667 2-2.5-.533-2.5-2-2.5-2 .667-2 2.5M83 86c0 1.822.667 2 7.5 2s7.5-.178 7.5-2-.667-2-7.5-2-7.5.178-7.5 2m74 0c0 1.822.667 2 7.5 2s7.5-.178 7.5-2-.667-2-7.5-2-7.5.178-7.5 2m-82.333 3.667c-.367.366-.667 1.491-.667 2.5C74 93.87 75.167 94 90.5 94H107v-5H91.167c-8.709 0-16.134.3-16.5.667M148 91.5v2.55l16.25-.275c15.492-.262 16.25-.368 16.25-2.275s-.758-2.013-16.25-2.275L148 88.95v2.55m-32 2c0 1.833.533 2.5 2 2.5s2-.667 2-2.5-.533-2.5-2-2.5-2 .667-2 2.5m9 0c0 2 .5 2.5 2.5 2.5s2.5-.5 2.5-2.5-.5-2.5-2.5-2.5-2.5.5-2.5 2.5m10 0c0 1.833.533 2.5 2 2.5s2-.667 2-2.5-.533-2.5-2-2.5-2 .667-2 2.5m-58 24.019v22.519l2.75-.72c2.951-.773 3.7-.804 12.5-.51 3.981.133 5.75.596 5.75 1.504 0 .722 1.35 2.31 3 3.53l3 2.218V95H77v22.519m74 3.011v25.53l3-2.218c1.65-1.22 3-2.808 3-3.53 0-.91 1.762-1.367 5.75-1.49 8.358-.259 8.45-.256 12 .467l3.25.661V95h-27v25.53M83 101.5c0 2 .5 2.5 2.5 2.5s2.5-.5 2.5-2.5-.5-2.5-2.5-2.5-2.5.5-2.5 2.5m10 0c0 2 .5 2.5 2.5 2.5s2.5-.5 2.5-2.5-.5-2.5-2.5-2.5-2.5.5-2.5 2.5m23 0c0 1.833.533 2.5 2 2.5s2-.667 2-2.5-.533-2.5-2-2.5-2 .667-2 2.5m9 0c0 2 .5 2.5 2.5 2.5s2.5-.5 2.5-2.5-.5-2.5-2.5-2.5-2.5.5-2.5 2.5m10 0c0 1.833.533 2.5 2 2.5s2-.667 2-2.5-.533-2.5-2-2.5-2 .667-2 2.5m22 0c0 2 .5 2.5 2.5 2.5s2.5-.5 2.5-2.5-.5-2.5-2.5-2.5-2.5.5-2.5 2.5m10 0c0 1.926.517 2.5 2.25 2.5s2.25-.574 2.25-2.5c0-1.926-.517-2.5-2.25-2.5s-2.25.574-2.25 2.5m-84 8c0 2 .5 2.5 2.5 2.5s2.5-.5 2.5-2.5-.5-2.5-2.5-2.5-2.5.5-2.5 2.5m10 0c0 2 .5 2.5 2.5 2.5s2.5-.5 2.5-2.5-.5-2.5-2.5-2.5-2.5.5-2.5 2.5m23 0c0 1.833.533 2.5 2 2.5s2-.667 2-2.5-.533-2.5-2-2.5-2 .667-2 2.5m9 0c0 2 .5 2.5 2.5 2.5s2.5-.5 2.5-2.5-.5-2.5-2.5-2.5-2.5.5-2.5 2.5m10 0c0 1.833.533 2.5 2 2.5s2-.667 2-2.5-.533-2.5-2-2.5-2 .667-2 2.5m22 0c0 2 .5 2.5 2.5 2.5s2.5-.5 2.5-2.5-.5-2.5-2.5-2.5-2.5.5-2.5 2.5m10 0c0 1.782.541 2.5 1.883 2.5 1.215 0 2.053-.887 2.362-2.5.4-2.096.096-2.5-1.884-2.5-1.852 0-2.361.539-2.361 2.5m-84 8c0 2 .5 2.5 2.5 2.5s2.5-.5 2.5-2.5-.5-2.5-2.5-2.5-2.5.5-2.5 2.5m10 0c0 2 .5 2.5 2.5 2.5s2.5-.5 2.5-2.5-.5-2.5-2.5-2.5-2.5.5-2.5 2.5m23-.214c0 1.619.583 2.285 2 2.285s2-.666 2-2.285c0-1.619-.583-2.286-2-2.286s-2 .667-2 2.286m9-.403c0 1.036.874 2.112 1.942 2.392 2.32.606 3.058.017 3.058-2.442 0-1.289-.742-1.833-2.5-1.833-1.782 0-2.5.541-2.5 1.883m10 .403c0 1.619.583 2.285 2 2.285s2-.666 2-2.285c0-1.619-.583-2.286-2-2.286s-2 .667-2 2.286m22 .214c0 2 .5 2.5 2.5 2.5s2.5-.5 2.5-2.5-.5-2.5-2.5-2.5-2.5.5-2.5 2.5m10 0c0 1.926.517 2.5 2.25 2.5s2.25-.574 2.25-2.5c0-1.926-.517-2.5-2.25-2.5s-2.25.574-2.25 2.5m-51 7.5c0 2.333.444 3 2 3s2-.667 2-3-.444-3-2-3-2 .667-2 3m9-.07c0 2.629.369 3.07 2.566 3.07 2.21 0 2.523-.382 2.25-2.75-.226-1.969-.955-2.841-2.566-3.07-1.914-.271-2.25.139-2.25 2.75m10 .07c0 2.333.444 3 2 3s2-.667 2-3-.444-3-2-3-2 .667-2 3m-52 .5c0 2 .5 2.5 2.5 2.5s2.5-.5 2.5-2.5-.5-2.5-2.5-2.5-2.5.5-2.5 2.5m10 0c0 2 .5 2.5 2.5 2.5s2.5-.5 2.5-2.5-.5-2.5-2.5-2.5-2.5.5-2.5 2.5m64 0c0 2 .5 2.5 2.5 2.5s2.5-.5 2.5-2.5-.5-2.5-2.5-2.5-2.5.5-2.5 2.5m10 0c0 1.782.541 2.5 1.883 2.5 1.215 0 2.053-.887 2.362-2.5.4-2.096.096-2.5-1.884-2.5-1.852 0-2.361.539-2.361 2.5m-49.25 5.189c-2.537.663-2.321 4.882.25 4.882 1.521 0 2-.666 2-2.785 0-1.532-.112-2.734-.25-2.67-.138.064-1.037.322-2 .573M135 133c0 1.905.519 2.571 2 2.571 1.481 0 2-.666 2-2.571 0-1.905-.519-2.571-2-2.571-1.481 0-2 .666-2 2.571m-52 .5c0 2 .5 2.5 2.5 2.5s2.5-.5 2.5-2.5-.5-2.5-2.5-2.5-2.5.5-2.5 2.5m10 0c0 2 .5 2.5 2.5 2.5s2.5-.5 2.5-2.5-.5-2.5-2.5-2.5-2.5.5-2.5 2.5m32-.617c0 1.036.874 2.112 1.942 2.392 2.32.606 3.058.017 3.058-2.442 0-1.289-.742-1.833-2.5-1.833-1.782 0-2.5.541-2.5 1.883m32 .617c0 2 .5 2.5 2.5 2.5s2.5-.5 2.5-2.5-.5-2.5-2.5-2.5-2.5.5-2.5 2.5m10 0c0 1.926.517 2.5 2.25 2.5s2.25-.574 2.25-2.5c0-1.926-.517-2.5-2.25-2.5s-2.25.574-2.25 2.5m-51 7.5c0 2.333.444 3 2 3s2-.667 2-3-.444-3-2-3-2 .667-2 3m9-.07c0 2.629.369 3.07 2.566 3.07 2.21 0 2.523-.382 2.25-2.75-.226-1.969-.955-2.841-2.566-3.07-1.914-.271-2.25.139-2.25 2.75m10 .07c0 2.333.444 3 2 3s2-.667 2-3-.444-3-2-3-2 .667-2 3m-56.5 3.207c-1.65.576-4.35 2.04-6 3.253-2.448 1.799-3.601 2.045-6.269 1.339-7.352-1.947-16.686 4.069-17.898 11.536L47.738 164H106v-2.435c0-3.686-1.519-6.948-5.174-11.111-5.739-6.536-14.493-8.985-22.326-6.247m81.863 1.257c-6.045 3.062-10.295 8.61-11.08 14.463l-.546 4.073h29.131c28.701 0 29.132-.03 29.132-2.05 0-7.925-10.397-15.309-18.479-13.123-2.422.655-3.877.247-7.784-2.181-6.829-4.245-13.556-4.635-20.374-1.182m-42.613 1.225c-2.537.663-2.321 4.882.25 4.882 1.521 0 2-.666 2-2.785 0-1.532-.112-2.734-.25-2.67-.138.064-1.037.322-2 .573M135 149c0 1.905.519 2.571 2 2.571 1.481 0 2-.666 2-2.571 0-1.905-.519-2.571-2-2.571-1.481 0-2 .666-2 2.571m-10-.117c0 1.036.874 2.112 1.942 2.392 2.32.606 3.058.017 3.058-2.442 0-1.289-.742-1.833-2.5-1.833-1.782 0-2.5.541-2.5 1.883M116 157c0 2.333.444 3 2 3s2-.667 2-3-.444-3-2-3-2 .667-2 3m9-.07c0 2.629.369 3.07 2.566 3.07 2.21 0 2.523-.382 2.25-2.75-.226-1.969-.955-2.841-2.566-3.07-1.914-.271-2.25.139-2.25 2.75m10 .07c0 2.333.444 3 2 3s2-.667 2-3-.444-3-2-3-2 .667-2 3M0 180.8c0 1.54.482 3.282 1.072 3.872.962.962.852 10.932-.259 23.328L.5 211.5H6c5.022 0 5.529-.205 5.835-2.365.184-1.301-.154-2.854-.75-3.45-.597-.597-1.085-2.57-1.085-4.385 0-2.837.344-3.3 2.455-3.3 2.577 0 3.156 1.53 3.785 10 .256 3.443.333 3.5 4.76 3.5 3.971 0 4.539-.278 4.835-2.365.184-1.301-.154-2.854-.75-3.45-.597-.597-1.085-2.934-1.085-5.194 0-4.225-1.216-6.573-4.215-8.137-1.512-.788-1.236-1.455 2.324-5.62 5.357-6.267 4.946-8.143-1.868-8.536L15 177.895v3.358c0 2.012-1.002 4.717-2.5 6.747l-2.5 3.389v-3.695c0-2.032.45-3.694 1-3.694s1-1.35 1-3v-3H6c-5.905 0-6 .044-6 2.8m32.4 3.573c-4.015 1.819-4.4 3.023-4.4 13.754 0 8.184.214 9.178 2.455 11.418 3.463 3.464 11.236 3.485 15.239.042 2.711-2.332 2.806-2.739 2.806-11.973 0-8.431-.252-9.811-2.138-11.696-2.691-2.691-9.715-3.468-13.962-1.545m24 .055c-4.011 1.746-4.4 2.957-4.4 13.699 0 8.306.19 9.153 2.585 11.549 2.373 2.373 3.101 2.543 8.895 2.078 3.471-.279 6.808-.814 7.416-1.189.607-.376 1.104-2.906 1.104-5.624V200h-3.434c-3.002 0-3.473.345-3.75 2.75-.227 1.978-.878 2.75-2.316 2.75-1.803 0-2.029-.764-2.292-7.75-.277-7.339-.179-7.75 1.844-7.75 1.294 0 2.341.788 2.658 2 .393 1.503 1.364 2 3.907 2 3.329 0 3.383-.07 3.383-4.381 0-4.35-.032-4.39-4.443-5.5-5.61-1.413-7.31-1.366-11.157.309m55.957-.49c-4.172 1.788-5.357 4.922-5.357 14.174 0 10.098 1.33 12.601 7.194 13.54C124.703 213.334 128 209.86 128 197.105c0-6.882-.317-8.362-2.283-10.648-2.507-2.914-9.403-4.215-13.36-2.519m49.663.346c-3.61 1.827-4.989 5.357-5.005 12.817-.026 11.738 2.43 14.899 11.578 14.899 3.442 0 5.074-.576 6.952-2.455 2.26-2.259 2.452-3.192 2.423-11.75-.02-6.036-.487-9.895-1.331-11.006-2.713-3.57-10.033-4.824-14.617-2.505M75 186.441c0 1.343.45 2.719 1 3.059 1.352.835 1.279 14.821-.085 16.185-.596.596-.934 2.149-.75 3.45.301 2.127.839 2.365 5.335 2.365s5.034-.238 5.335-2.365c.184-1.301-.154-2.854-.75-3.45-.597-.597-1.05-2.908-1.007-5.135l.077-4.05 1.754 5c1.233 3.515 2.355 5.089 3.78 5.301 1.66.246 2.324-.659 3.671-5l1.644-5.301-.549 7.807-.549 7.806 4.797-.306c4.138-.265 4.842-.624 5.124-2.612.179-1.268-.096-2.843-.613-3.5-1.356-1.725-1.606-15.695-.281-15.695.587 0 1.067-1.372 1.067-3.05v-3.05l-5.649.3-5.65.3-1.523 5-1.523 5-1.472-5.25-1.472-5.25h-5.856c-5.541 0-5.855.131-5.855 2.441m56.575 11.309l.083 13.75 4.681.305c5.19.339 6.97-1.48 4.819-4.924-.637-1.02-1.158-5.235-1.158-9.367 0-7.462.019-7.514 2.65-7.514h2.65l-.581 11-.58 11h9.361v-28h-22.009l.084 13.75m51.144-2.75c.525 9.952.417 11-1.136 11-1.282 0-1.636.695-1.399 2.75.251 2.184.9 2.817 3.154 3.075 5.314.608 6.662-1.917 6.662-12.48V190h5.3l-.581 11-.58 11h4.931c4.789 0 4.93-.084 4.93-2.941 0-1.618-.45-3.219-1-3.559-.55-.34-1-3.715-1-7.5s.45-7.16 1-7.5c.55-.34 1-1.941 1-3.559V184H182.139l.58 11m24.781 3v14h4.781c5.337 0 6.958-1.786 4.783-5.269-1.094-1.752-.862-2.394 1.842-5.099l3.094-3.094v3.031c0 1.667-.488 3.519-1.085 4.116-.596.596-.934 2.149-.75 3.45.301 2.127.839 2.365 5.335 2.365s5.034-.238 5.335-2.365c.184-1.301-.154-2.854-.75-3.45-1.364-1.364-1.437-15.35-.085-16.185.55-.34 1-1.716 1-3.059 0-2.292-.335-2.441-5.5-2.441-5.072 0-5.5.179-5.5 2.3 0 1.265.453 2.753 1.007 3.307.675.675.017 1.954-2 3.887l-3.007 2.88v-2.7c0-1.486.521-3.535 1.158-4.555 2.084-3.337.386-5.119-4.877-5.119H207.5v14m25.5-8.5c0 5.444.03 5.5 3 5.5 2.303 0 3-.451 3-1.941 0-1.068.45-2.219 1-2.559 1.389-.858 1.307 13.793-.085 15.185-.596.596-.934 2.149-.75 3.45.301 2.127.839 2.365 5.335 2.365s5.034-.238 5.335-2.365c.184-1.301-.154-2.854-.75-3.45-1.392-1.392-1.474-16.043-.085-15.185.55.34 1 1.491 1 2.559 0 1.49.697 1.941 3 1.941 2.97 0 3-.056 3-5.5V184h-23v5.5m-196.793 8.175c.264 7.061.488 7.825 2.293 7.825 1.822 0 2-.667 2-7.5 0-7.059-.135-7.519-2.293-7.825-2.245-.319-2.288-.158-2 7.5m79 0c.264 7.061.488 7.825 2.293 7.825 1.822 0 2-.667 2-7.5 0-7.059-.135-7.519-2.293-7.825-2.245-.319-2.288-.158-2 7.5m50.21-6.32c-.286.746-.384 4.233-.218 7.75.265 5.628.541 6.395 2.301 6.395 1.803 0 2.029-.764 2.292-7.75.274-7.269.163-7.75-1.781-7.75-1.141 0-2.308.61-2.594 1.355M144 227.55c0 1.877 3.561 2.755 5.962 1.47 3.21-1.718 2.394-2.9-1.962-2.839-2.61.036-4 .512-4 1.369m-84 3.893c0 1.059 1.039 1.605 3.25 1.707 2.917.134 2.975.192.573.559-3.582.548-5.193 2.682-4.402 5.834.582 2.319 1.055 2.539 4.862 2.263l4.217-.306v-11l-4.25-.307c-3.312-.24-4.25.036-4.25 1.25m10.627.087c-.345.899-.627 4.522-.627 8.052 0 5.751.208 6.418 2 6.418 1.31 0 2-.667 2-1.934 0-1.366.807-2.026 2.75-2.25 2.628-.302 2.75-.559 2.75-5.816v-5.5l-4.123-.301c-3.083-.226-4.282.111-4.75 1.331m11.802-.205c-.305.795-.414 3.41-.242 5.811.313 4.363.314 4.364 4.563 4.671 3.312.24 4.25-.036 4.25-1.25 0-1.066-1.025-1.594-3.25-1.675l-3.25-.119 3-.641c2.638-.564 3-1.063 3-4.132 0-3.312-.191-3.506-3.758-3.801-2.577-.213-3.933.144-4.313 1.136m9.771 4.415c.237 4.528.67 5.811 2.05 6.074 1.3.247 1.75-.33 1.75-2.241 0-1.62.555-2.573 1.5-2.573.933 0 1.5.944 1.5 2.5s.567 2.5 1.5 2.5c1.167 0 1.5-1.333 1.5-6s-.333-6-1.5-6c-.833 0-1.5.889-1.5 2s-.667 2-1.5 2-1.5-.889-1.5-2c0-1.35-.667-2-2.05-2-1.863 0-2.023.523-1.75 5.74m13.302-.553c-2.847 5.903-3.247 9.813-1.002 9.813.825 0 1.5-.675 1.5-1.5 0-1.048 1.056-1.5 3.5-1.5s3.5.452 3.5 1.5c0 .825.675 1.5 1.5 1.5.869 0 1.5-.906 1.5-2.154 0-3.276-4.862-12.846-6.527-12.846-.808 0-2.594 2.334-3.971 5.187M117 236c0 4.667.333 6 1.5 6 .933 0 1.5-.944 1.5-2.5s.567-2.5 1.5-2.5c.945 0 1.5.953 1.5 2.573 0 1.913.449 2.487 1.75 2.237 1.412-.272 1.75-1.393 1.75-5.81s-.338-5.538-1.75-5.81c-1.212-.233-1.75.3-1.75 1.737 0 1.176-.649 2.073-1.5 2.073-.833 0-1.5-.889-1.5-2s-.667-2-1.5-2c-1.167 0-1.5 1.333-1.5 6m11.2-.25c.298 5.71.323 5.752 3.615 6.068 1.824.175 3.961-.217 4.75-.872 1.021-.847 1.435-.867 1.435-.068 0 .617.675 1.122 1.5 1.122 1.167 0 1.5-1.333 1.5-6s-.333-6-1.5-6c-1.021 0-1.5 1.022-1.5 3.2 0 2.489-.267 2.933-1.2 2-.66-.66-2.235-1.2-3.5-1.2-1.633 0-2.3-.58-2.3-2 0-1.14-.667-2-1.55-2-1.255 0-1.493 1.094-1.25 5.75m14-.01c.352 6.735 2.632 8.302 5.196 3.571l1.524-2.811.04 2.75c.026 1.76.58 2.75 1.54 2.75 1.167 0 1.5-1.333 1.5-6 0-6.499-1.544-7.916-4.316-3.959l-1.429 2.041-.534-2.041c-.294-1.123-1.273-2.041-2.177-2.041-1.369 0-1.594.96-1.344 5.74m19.17-1.294c-1.029 2.501-2.208 4.548-2.62 4.55-.412.002-.75 1.354-.75 3.004 0 2 .5 3 1.5 3 .825 0 1.5-.675 1.5-1.5 0-1.083 1.111-1.5 4-1.5 2.889 0 4 .417 4 1.5 0 .825.675 1.5 1.5 1.5s1.499-.787 1.498-1.75c-.001-1.421.891-1.75 4.75-1.75h4.752v-11h-9l-.307 4.25c-.17 2.338-.655 4.25-1.079 4.25-.425 0-1.636-1.911-2.693-4.246-2.652-5.862-4.73-5.952-7.051-.308m22.036-3.06c-.293.762-.391 3.345-.219 5.741.23 3.2.777 4.444 2.063 4.688 1.326.251 1.75-.341 1.75-2.442 0-2.126.275-2.498 1.176-1.597.859.859 1.534.88 2.5.078 1.041-.864 1.324-.539 1.324 1.524 0 1.664.548 2.622 1.5 2.622 1.167 0 1.5-1.333 1.5-6 0-5.168-.256-6-1.847-6-1.016 0-2.295 1.003-2.842 2.229l-.995 2.23-1.193-2.23c-1.336-2.496-3.907-2.956-4.717-.843M74 236c0 2 .5 3 1.5 3s1.5-1 1.5-3-.5-3-1.5-3-1.5 1-1.5 3m11-2c0 .55.675 1 1.5 1s1.5-.45 1.5-1-.675-1-1.5-1-1.5.45-1.5 1m91 2c0 2 .5 3 1.5 3s1.5-1 1.5-3-.5-3-1.5-3-1.5 1-1.5 3m-67.361.498c-.893 2.327-.832 2.502.861 2.502 1.683 0 1.873-.863.624-2.834-.675-1.064-.975-.997-1.485.332m55.071.502c-.39 1.493-.03 2 1.419 2 1.631 0 1.771-.319.871-2-.589-1.1-1.227-2-1.419-2-.191 0-.583.9-.871 2M63 238c0 .55.702 1 1.559 1s1.281-.45.941-1c-.34-.55-1.041-1-1.559-1s-.941.45-.941 1m68.5 0c-.34.55.084 1 .941 1s1.559-.45 1.559-1-.423-1-.941-1-1.219.45-1.559 1" fill="#1976D2" fill-rule="evenodd"/><path fill-opacity=".14" d="M126 15c0 4.667.333 6 1.5 6s1.5-1.333 1.5-6-.333-6-1.5-6-1.5 1.333-1.5 6m-2.81 9.75c.254 1.316 1.322 1.75 4.31 1.75 2.988 0 4.056-.434 4.31-1.75.282-1.464-.423-1.75-4.31-1.75-3.887 0-4.592.286-4.31 1.75m-2.482 3.876c-.39.389-.708 1.327-.708 2.084 0 1.07 1.617 1.312 7.25 1.084 5.647-.229 7.25-.626 7.25-1.794 0-1.151-1.523-1.568-6.542-1.791-3.599-.16-6.861.028-7.25.417M109 35.5c0 1.279 2.722 1.5 18.5 1.5s18.5-.221 18.5-1.5-2.722-1.5-18.5-1.5-18.5.221-18.5 1.5m-3 5c0 .825.664 1.5 1.476 1.5 1.28 0 1.527 7.61 1.858 57.25.21 31.488.72 58.938 1.133 61l.752 3.75h32.571l.732-4.25c.403-2.338.911-29.787 1.129-61 .252-35.967.754-56.75 1.373-56.75.537 0 .976-.675.976-1.5 0-1.286-3-1.5-21-1.5s-21 .214-21 1.5m9.709 2.124c-.39.39-.709 1.759-.709 3.043 0 1.937.521 2.333 3.066 2.333 2.756 0 3.035-.279 2.75-2.75-.31-2.696-3.432-4.301-5.107-2.626M125 45c0 2.533.389 3 2.5 3 2.111 0 2.5-.467 2.5-3s-.389-3-2.5-3c-2.111 0-2.5.467-2.5 3m9.709-2.376c-.39.39-.709 1.759-.709 3.043 0 1.937.521 2.333 3.066 2.333 2.756 0 3.035-.279 2.75-2.75-.31-2.696-3.432-4.301-5.107-2.626m-19 8c-.39.39-.709 1.759-.709 3.043 0 1.937.521 2.333 3.066 2.333 2.756 0 3.035-.279 2.75-2.75-.31-2.696-3.432-4.301-5.107-2.626M125 53c0 2.533.389 3 2.5 3 2.111 0 2.5-.467 2.5-3s-.389-3-2.5-3c-2.111 0-2.5.467-2.5 3m9.709-2.376c-.39.39-.709 1.759-.709 3.043 0 1.937.521 2.333 3.066 2.333 2.756 0 3.035-.279 2.75-2.75-.31-2.696-3.432-4.301-5.107-2.626M115 61c0 2.828.268 3.102 2.75 2.816 2.182-.251 2.75-.832 2.75-2.816s-.568-2.565-2.75-2.816c-2.482-.286-2.75-.012-2.75 2.816m10 0c0 2.533.389 3 2.5 3 2.111 0 2.5-.467 2.5-3s-.389-3-2.5-3c-2.111 0-2.5.467-2.5 3m9.667-2.333c-.367.366-.667 1.716-.667 3 0 1.926.524 2.333 3 2.333 2.667 0 3-.333 3-3 0-2.476-.407-3-2.333-3-1.284 0-2.634.3-3 .667M115 68.934c0 2.755.311 3.066 3.066 3.066 2.756 0 3.035-.279 2.75-2.75-.248-2.16-.906-2.818-3.066-3.066-2.471-.285-2.75-.006-2.75 2.75M125 69c0 2.533.389 3 2.5 3 2.111 0 2.5-.467 2.5-3s-.389-3-2.5-3c-2.111 0-2.5.467-2.5 3m9.709-2.376c-.39.39-.709 1.759-.709 3.043 0 1.937.521 2.333 3.066 2.333 2.756 0 3.035-.279 2.75-2.75-.31-2.696-3.432-4.301-5.107-2.626M115 77c0 2.828.268 3.102 2.75 2.816 2.182-.251 2.75-.832 2.75-2.816s-.568-2.565-2.75-2.816c-2.482-.286-2.75-.012-2.75 2.816m10 0c0 2.533.389 3 2.5 3 2.111 0 2.5-.467 2.5-3s-.389-3-2.5-3c-2.111 0-2.5.467-2.5 3m9.667-2.333c-.367.366-.667 1.716-.667 3 0 1.926.524 2.333 3 2.333 2.667 0 3-.333 3-3 0-2.476-.407-3-2.333-3-1.284 0-2.634.3-3 .667M89 80c0 2 .5 3 1.5 3s1.5-1 1.5-3-.5-3-1.5-3-1.5 1-1.5 3m74 0c0 2 .5 3 1.5 3s1.5-1 1.5-3-.5-3-1.5-3-1.5 1-1.5 3m-48 4.934c0 2.755.311 3.066 3.066 3.066 2.756 0 3.035-.279 2.75-2.75-.248-2.16-.906-2.818-3.066-3.066-2.471-.285-2.75-.006-2.75 2.75M125 85c0 2.533.389 3 2.5 3 2.111 0 2.5-.467 2.5-3s-.389-3-2.5-3c-2.111 0-2.5.467-2.5 3m9.709-2.376c-.39.39-.709 1.759-.709 3.043 0 1.937.521 2.333 3.066 2.333 2.756 0 3.035-.279 2.75-2.75-.31-2.696-3.432-4.301-5.107-2.626M83 86.5c0 1.2 1.5 1.5 7.5 1.5s7.5-.3 7.5-1.5-1.5-1.5-7.5-1.5-7.5.3-7.5 1.5m74 0c0 1.188 1.433 1.5 6.893 1.5 5.205 0 7.034-.367 7.469-1.5.48-1.251-.665-1.5-6.893-1.5-5.972 0-7.469.301-7.469 1.5m-83 5c0 1.273 2.5 1.5 16.5 1.5s16.5-.227 16.5-1.5-2.5-1.5-16.5-1.5-16.5.227-16.5 1.5m41 1.5c0 2.828.268 3.102 2.75 2.816 2.182-.251 2.75-.832 2.75-2.816s-.568-2.565-2.75-2.816c-2.482-.286-2.75-.012-2.75 2.816m10 0c0 2.533.389 3 2.5 3 2.111 0 2.5-.467 2.5-3s-.389-3-2.5-3c-2.111 0-2.5.467-2.5 3m9.667-2.333c-.367.366-.667 1.716-.667 3 0 1.926.524 2.333 3 2.333 2.667 0 3-.333 3-3 0-2.476-.407-3-2.333-3-1.284 0-2.634.3-3 .667M148 91.5c0 1.271 2.444 1.5 16 1.5 13.556 0 16-.229 16-1.5s-2.444-1.5-16-1.5c-13.556 0-16 .229-16 1.5m-71 25.329v21.829l10.5-.296c8.964-.253 10.5-.069 10.5 1.261 0 1.499 3.709 5.275 5.25 5.344.412.018.75-11.217.75-24.967V95H77v21.829M151 120c0 13.75.338 24.985.75 24.967 1.541-.069 5.25-3.845 5.25-5.344 0-1.33 1.536-1.514 10.5-1.261l10.5.296V95h-27v25m-36-19.066c0 2.755.311 3.066 3.066 3.066 2.756 0 3.035-.279 2.75-2.75-.248-2.16-.906-2.818-3.066-3.066-2.471-.285-2.75-.006-2.75 2.75m10 .066c0 2.533.389 3 2.5 3 2.111 0 2.5-.467 2.5-3s-.389-3-2.5-3c-2.111 0-2.5.467-2.5 3m9.709-2.376c-.39.39-.709 1.759-.709 3.043 0 1.937.521 2.333 3.066 2.333 2.756 0 3.035-.279 2.75-2.75-.31-2.696-3.432-4.301-5.107-2.626M83 101.5c0 2 .5 2.5 2.5 2.5s2.5-.5 2.5-2.5-.5-2.5-2.5-2.5-2.5.5-2.5 2.5m10 0c0 2 .5 2.5 2.5 2.5s2.5-.5 2.5-2.5-.5-2.5-2.5-2.5-2.5.5-2.5 2.5m64 0c0 2 .5 2.5 2.5 2.5s2.5-.5 2.5-2.5-.5-2.5-2.5-2.5-2.5.5-2.5 2.5m10 0c0 2 .5 2.5 2.5 2.5s2.5-.5 2.5-2.5-.5-2.5-2.5-2.5-2.5.5-2.5 2.5m-52 7.5c0 2.828.268 3.102 2.75 2.816 2.182-.251 2.75-.832 2.75-2.816s-.568-2.565-2.75-2.816c-2.482-.286-2.75-.012-2.75 2.816m10 0c0 2.533.389 3 2.5 3 2.111 0 2.5-.467 2.5-3s-.389-3-2.5-3c-2.111 0-2.5.467-2.5 3m9.667-2.333c-.367.366-.667 1.716-.667 3 0 1.926.524 2.333 3 2.333 2.667 0 3-.333 3-3 0-2.476-.407-3-2.333-3-1.284 0-2.634.3-3 .667M83 109.5c0 2 .5 2.5 2.5 2.5s2.5-.5 2.5-2.5-.5-2.5-2.5-2.5-2.5.5-2.5 2.5m10 0c0 2 .5 2.5 2.5 2.5s2.5-.5 2.5-2.5-.5-2.5-2.5-2.5-2.5.5-2.5 2.5m64 0c0 2 .5 2.5 2.5 2.5s2.5-.5 2.5-2.5-.5-2.5-2.5-2.5-2.5.5-2.5 2.5m10 0c0 2 .5 2.5 2.5 2.5s2.5-.5 2.5-2.5-.5-2.5-2.5-2.5-2.5.5-2.5 2.5m-52 7.5c0 2.828.268 3.102 2.75 2.816 2.182-.251 2.75-.832 2.75-2.816s-.568-2.565-2.75-2.816c-2.482-.286-2.75-.012-2.75 2.816m10 0c0 2.533.389 3 2.5 3 2.111 0 2.5-.467 2.5-3s-.389-3-2.5-3c-2.111 0-2.5.467-2.5 3m9.709-2.376c-.39.39-.709 1.759-.709 3.043 0 1.937.521 2.333 3.066 2.333 2.756 0 3.035-.279 2.75-2.75-.31-2.696-3.432-4.301-5.107-2.626M83 117.5c0 2 .5 2.5 2.5 2.5s2.5-.5 2.5-2.5-.5-2.5-2.5-2.5-2.5.5-2.5 2.5m10 0c0 2 .5 2.5 2.5 2.5s2.5-.5 2.5-2.5-.5-2.5-2.5-2.5-2.5.5-2.5 2.5m64 0c0 2 .5 2.5 2.5 2.5s2.5-.5 2.5-2.5-.5-2.5-2.5-2.5-2.5.5-2.5 2.5m10 0c0 2 .5 2.5 2.5 2.5s2.5-.5 2.5-2.5-.5-2.5-2.5-2.5-2.5.5-2.5 2.5M83 125c0 2.533.389 3 2.5 3 2.111 0 2.5-.467 2.5-3s-.389-3-2.5-3c-2.111 0-2.5.467-2.5 3m10 0c0 2.533.389 3 2.5 3 2.111 0 2.5-.467 2.5-3s-.389-3-2.5-3c-2.111 0-2.5.467-2.5 3m22 0c0 2.828.268 3.102 2.75 2.816 2.182-.251 2.75-.832 2.75-2.816s-.568-2.565-2.75-2.816c-2.482-.286-2.75-.012-2.75 2.816m10 0c0 2.533.389 3 2.5 3 2.111 0 2.5-.467 2.5-3s-.389-3-2.5-3c-2.111 0-2.5.467-2.5 3m9 0c0 2.667.333 3 3 3s3-.333 3-3-.333-3-3-3-3 .333-3 3m23 0c0 2.533.389 3 2.5 3 2.111 0 2.5-.467 2.5-3s-.389-3-2.5-3c-2.111 0-2.5.467-2.5 3m10-.07c0 2.629.369 3.07 2.566 3.07 2.21 0 2.523-.382 2.25-2.75-.226-1.969-.955-2.841-2.566-3.07-1.914-.271-2.25.139-2.25 2.75M83 133c0 2.533.389 3 2.5 3 2.111 0 2.5-.467 2.5-3s-.389-3-2.5-3c-2.111 0-2.5.467-2.5 3m10 0c0 2.533.389 3 2.5 3 2.111 0 2.5-.467 2.5-3s-.389-3-2.5-3c-2.111 0-2.5.467-2.5 3m22 0c0 2.828.268 3.102 2.75 2.816 2.182-.251 2.75-.832 2.75-2.816s-.568-2.565-2.75-2.816c-2.482-.286-2.75-.012-2.75 2.816m10 0c0 2.533.389 3 2.5 3 2.111 0 2.5-.467 2.5-3s-.389-3-2.5-3c-2.111 0-2.5.467-2.5 3m9 0c0 2.667.333 3 3 3s3-.333 3-3-.333-3-3-3-3 .333-3 3m23 0c0 2.533.389 3 2.5 3 2.111 0 2.5-.467 2.5-3s-.389-3-2.5-3c-2.111 0-2.5.467-2.5 3m9.852-2.519c-.311.311-.353 1.68-.092 3.043.35 1.832 1.11 2.476 2.923 2.476 2.083 0 2.402-.412 2.133-2.75-.215-1.874-.967-2.843-2.357-3.042-1.123-.161-2.296-.038-2.607.273M115 141c0 2.828.268 3.102 2.75 2.816 2.182-.251 2.75-.832 2.75-2.816s-.568-2.565-2.75-2.816c-2.482-.286-2.75-.012-2.75 2.816m10 0c0 2.533.389 3 2.5 3 2.111 0 2.5-.467 2.5-3s-.389-3-2.5-3c-2.111 0-2.5.467-2.5 3m9 0c0 2.667.333 3 3 3s3-.333 3-3-.333-3-3-3-3 .333-3 3m-54 3.153c-1.925.559-4.85 2.038-6.5 3.288-2.524 1.911-3.885 2.197-8.586 1.805-8.645-.722-14.96 3.732-16.547 11.67L47.75 164h58.473l-.661-3.75C103.613 149.177 90.7 141.045 80 144.153m85.5-.218c-4.232 1.03-8.628 3.477-11.202 6.234-2.55 2.73-5.298 8.851-5.298 11.799 0 1.996.514 2.032 29 2.032 32.605 0 31.197.39 26.734-7.396-3.159-5.509-7.842-7.833-14.734-7.31-4.56.346-6.013.032-8.5-1.84-2.768-2.083-9.646-4.574-12-4.346-.55.053-2.35.425-4 .827M115 149c0 2.828.268 3.102 2.75 2.816 2.182-.251 2.75-.832 2.75-2.816s-.568-2.565-2.75-2.816c-2.482-.286-2.75-.012-2.75 2.816m10 0c0 2.533.389 3 2.5 3 2.111 0 2.5-.467 2.5-3s-.389-3-2.5-3c-2.111 0-2.5.467-2.5 3m9 0c0 2.667.333 3 3 3s3-.333 3-3-.333-3-3-3-3 .333-3 3m-19 8c0 2.828.268 3.102 2.75 2.816 2.182-.251 2.75-.832 2.75-2.816s-.568-2.565-2.75-2.816c-2.482-.286-2.75-.012-2.75 2.816m10 0c0 2.533.389 3 2.5 3 2.111 0 2.5-.467 2.5-3s-.389-3-2.5-3c-2.111 0-2.5.467-2.5 3m9 0c0 2.667.333 3 3 3s3-.333 3-3-.333-3-3-3-3 .333-3 3M.331 179.58c-.356.927-.126 2.519.511 3.539 1.432 2.293 1.568 21.51.158 22.381-.55.34-1 1.716-1 3.059C0 210.854.332 211 5.561 211h5.56l-.69-7c-.728-7.389-.309-8.076 3.635-5.965 1.58.846 1.934 2.126 1.934 7V211h9.262l-.62-3.75c-.341-2.062-.625-5.257-.631-7.099-.008-2.425-.841-4.124-3.021-6.161l-3.011-2.812 2.761-3.339c1.518-1.836 3.097-3.489 3.51-3.672.412-.184.75-1.646.75-3.25 0-2.79-.195-2.917-4.5-2.917-4.249 0-4.5.154-4.5 2.768 0 1.522-1.237 4.56-2.75 6.75L10.5 191.5l-.325-2.834c-.178-1.559.001-3.584.399-4.5 1.959-4.51 1.125-5.652-4.359-5.969-4.171-.241-5.369.041-5.884 1.383m30.53 6.331c-2.104 1.703-2.398 2.883-2.704 10.836-.321 8.337-.179 9.116 2.165 11.839 2.241 2.604 3.117 2.908 8.226 2.859 8.271-.081 9.452-1.837 9.452-14.056 0-8.056-.284-9.673-2-11.389-2.754-2.754-11.781-2.807-15.139-.089m23.594.544C52.258 188.651 52 189.749 52 196.907c0 4.4.516 9.132 1.147 10.517 1.435 3.149 6.735 5.008 11.65 4.086 6.368-1.194 7.347-2.148 7.007-6.824-.283-3.902-.505-4.186-3.259-4.186-2.328 0-3.08.531-3.545 2.5-.431 1.827-1.251 2.5-3.045 2.5-2.349 0-2.468-.307-2.746-7.094-.212-5.176.092-7.411 1.124-8.267 1.7-1.411 4.667-.478 4.667 1.468 0 .819 1.03 1.393 2.5 1.393 3.752 0 3.991-.224 4.103-3.831.123-3.991-2.091-5.169-9.714-5.169-3.954 0-5.486.506-7.434 2.455M76.5 197.456V211h8.474l-.633-7.5c-.349-4.125-.375-7.5-.059-7.5.317 0 1.304 2.504 2.194 5.564 2.073 7.133 4.101 6.961 6.638-.564l1.855-5.5-.472 7.75-.471 7.75h4.987c4.27 0 4.987-.279 4.987-1.941 0-1.068-.45-2.219-1-2.559-1.204-.744-1.354-16.163-.164-16.899.46-.284.762-1.548.671-2.809-.144-2.016-.763-2.328-5.139-2.587l-4.974-.296-1.869 5.796-1.87 5.795-1.695-5.5-1.695-5.5-4.883-.294-4.882-.293v13.543m33.361-11.545c-2.183 1.767-2.361 2.63-2.361 11.47 0 8.613.225 9.784 2.278 11.839 3.033 3.036 11.932 3.257 15.117.375 1.868-1.691 2.105-3.011 2.105-11.75 0-8.512-.271-10.116-2-11.845-2.754-2.754-11.781-2.807-15.139-.089m21.45-.279c-.345.898-.106 2.467.531 3.487 1.417 2.269 1.545 15.524.158 16.381-.55.34-1 1.716-1 3.059 0 2.27.359 2.441 5.113 2.441h5.114l-.71-3.25c-.391-1.787-.928-6.512-1.193-10.5l-.482-7.25H146v7.441c0 4.093-.45 7.719-1 8.059-.55.34-1 1.716-1 3.059 0 2.263.366 2.441 5 2.441 4.551 0 5-.207 5-2.3 0-1.265-.489-2.789-1.087-3.387-1.114-1.114-.755-11.793.608-18.063l.706-3.25h-11.145c-9.386 0-11.244.258-11.771 1.632M160 186c-1.713 1.713-2 3.333-2 11.277 0 10.769 1.166 13.288 6.625 14.312 1.962.369 5.292.153 7.4-.478 4.906-1.47 6.333-5.355 5.805-15.803-.324-6.423-.722-7.802-2.716-9.417-3.333-2.699-12.371-2.634-15.114.109m22.464 1.25c2.183 10.264 1.738 18.75-.983 18.75-2.014 0-1.928 4.614.101 5.393 2.703 1.037 4.344.681 6.418-1.393 1.704-1.704 2-3.333 2-11v-9h5.287l-.536 10.5-.536 10.5h4.893c4.52 0 4.892-.186 4.892-2.441 0-1.343-.45-2.719-1-3.059-1.387-.857-1.259-14.112.158-16.381.637-1.02.876-2.589.531-3.487-.525-1.368-2.348-1.632-11.271-1.632h-10.645l.691 3.25m24.536-.809c0 1.343.45 2.719 1 3.059.55.34 1 3.94 1 8 0 4.06-.45 7.66-1 8-.55.34-1 1.716-1 3.059 0 2.271.358 2.441 5.131 2.441h5.131l-.603-3.715c-.48-2.956-.164-4.183 1.543-6 3.409-3.629 4.12-2.847 3.378 3.715l-.679 6h8.599v-27h-8.763l.525 3.915c.445 3.321.116 4.307-2.173 6.5-1.484 1.422-2.967 2.585-3.294 2.585-.596 0-.284-3.629.837-9.75l.595-3.25h-5.114c-4.754 0-5.113.171-5.113 2.441m26 3.125c0 5.483.041 5.562 2.75 5.25 1.969-.226 2.841-.955 3.07-2.566.175-1.238.802-2.25 1.393-2.25.731 0 .903 3.351.538 10.5l-.536 10.5h8.57l-.536-10.5c-.384-7.525-.212-10.5.607-10.5.629 0 1.144 1.125 1.144 2.5 0 2.111.467 2.5 3 2.5 2.97 0 3-.056 3-5.5V184h-23v5.566m-196.8.634c-1.371 1.371-1.613 12.6-.315 14.648.47.742 1.701 1.187 2.735.99 1.605-.307 1.923-1.443 2.177-7.76.211-5.246-.081-7.641-1-8.225-1.74-1.103-2.19-1.06-3.597.347m78.835.734c-1.133 2.118-1.359 9.257-.405 12.816.745 2.78 3.916 2.968 5.335.316 1.306-2.441 1.338-9.139.06-12.501-1.156-3.039-3.54-3.34-4.99-.631m51.168-1.081c-.919.584-1.211 2.979-1 8.225.254 6.317.572 7.453 2.177 7.76 2.708.517 3.587-1.528 3.605-8.388.018-7.121-1.566-9.637-4.782-7.597M144.31 227.45c.541 1.652 6.69 1.94 6.69.313 0-.892-1.214-1.363-3.517-1.363-2.007 0-3.369.451-3.173 1.05m-83.616 3.189c-1.134 1.134.356 2.361 2.865 2.361 1.343 0 2.441.45 2.441 1s-1.35 1-3 1c-2.667 0-3 .333-3 3 0 2.889.167 3 4.5 3H69v-4.893c0-3.539-.438-5.061-1.582-5.5-2.073-.796-5.915-.777-6.724.032m11.02-.02C70.649 231.684 70.85 246 71.93 246c.512 0 1.075-1.012 1.25-2.25.247-1.733 1.078-2.323 3.62-2.567l3.3-.317-.3-5.183c-.298-5.145-.326-5.185-3.836-5.481-1.944-.163-3.857.024-4.25.417m11.536.043c-.762.308-1.25 2.424-1.25 5.421V241h4.559c2.785 0 4.319-.389 3.941-1-.34-.55-1.716-1-3.059-1-1.343 0-2.441-.45-2.441-1s1.35-1 3-1c2.642 0 3-.345 3-2.893 0-3.609-3.494-5.162-7.75-3.445M93 235.5c0 3.025.45 5.5 1 5.5s1-.9 1-2c0-2.901 3.765-2.676 4.18.25.596 4.195 2.32 1.779 2.32-3.25 0-4.92-1.688-7.082-2.327-2.981-.436 2.795-3.57 2.184-3.993-.779-.632-4.435-2.18-2.121-2.18 3.26m14.043-2.339c-1.119 1.836-2.037 3.902-2.039 4.589-.002.688-.454 1.25-1.004 1.25s-1 1.35-1 3c0 3.388 1.495 4.04 2.29 1 .403-1.544 1.364-2 4.21-2s3.807.456 4.21 2c.795 3.04 2.29 2.388 2.29-1 0-1.65-.415-3-.922-3-.508 0-1.431-1.539-2.052-3.42-1.855-5.621-3.6-6.327-5.983-2.419m10.387-1.839c-.882 2.299-.034 10.2 1.07 9.968.55-.116 1.144-1.129 1.32-2.25.41-2.623 3.207-2.652 3.89-.04 1.015 3.881 2.29 1.933 2.29-3.5 0-5.381-1.548-7.695-2.18-3.26-.416 2.912-3.82 3.708-3.82.892 0-2.497-1.816-3.776-2.57-1.81m11.209-.628c-.351.352-.639 2.814-.639 5.473V241h4.5c4.333 0 4.5-.111 4.5-3 0-2.667-.333-3-3-3-2.303 0-3-.451-3-1.941 0-2.087-1.318-3.408-2.361-2.365m9.831.524c-.903 2.353-.109 10.282 1.03 10.282 1.358 0 1.881-9.519.593-10.807-.703-.703-1.215-.538-1.623.525m4.53 4.115c0 2.934.301 5.635.669 6.003.889.889 4.331-2.282 4.331-3.991 0-.74.482-1.345 1.072-1.345.589 0 .926 1.104.75 2.454-.177 1.35.128 2.475.678 2.5 1.449.067 1.265-10.199-.191-10.684-.656-.219-2.004 1.094-2.998 2.916l-1.806 3.314-.316-3.25c-.514-5.294-2.189-3.7-2.189 2.083m18.075.345c-1.691 3.122-3.075 6.246-3.075 6.941 0 2.26 2.119 2.641 2.684.482.774-2.961 7.257-3.042 8.026-.101.697 2.665 2.29 2.558 2.29-.154 0-2.655-4.724-12.846-5.954-12.846-.493 0-2.28 2.555-3.971 5.678m12.592-5.011c-.367.366-.667 2.841-.667 5.5V241h9v-4.893c0-3.539-.438-5.061-1.582-5.5-2.102-.807-5.919-.773-6.751.06m11.071-.071C183.62 231.713 183.855 241 185 241c.55 0 1-1.129 1-2.508 0-2.268.195-2.388 2.031-1.25 1.678 1.04 2.195.998 2.984-.242.739-1.161.958-.879.97 1.25.01 1.812.544 2.75 1.567 2.75 1.242 0 1.492-1.034 1.25-5.171-.34-5.83-2.146-7.362-3.967-3.366l-1.194 2.62-2.083-2.612c-1.145-1.437-2.415-2.281-2.82-1.875M73 236c0 2.333.444 3 2 3s2-.667 2-3-.444-3-2-3-2 .667-2 3m12-2c0 .55.675 1 1.5 1s1.5-.45 1.5-1-.675-1-1.5-1-1.5.45-1.5 1m90 2c0 2.333.444 3 2 3s2-.667 2-3-.444-3-2-3-2 .667-2 3m-66.816.496c-1.053 2.311-.947 2.504 1.373 2.504 2.287 0 2.408-.203 1.343-2.25-.644-1.238-1.262-2.364-1.373-2.504-.111-.14-.716.872-1.343 2.25m55.848-1.828c-.018.643-.305 1.88-.639 2.75-.435 1.134-.01 1.582 1.5 1.582 1.159 0 2.107-.364 2.107-.809 0-1.317-2.933-4.799-2.968-3.523M63 238c0 .55.675 1 1.5 1s1.5-.45 1.5-1-.675-1-1.5-1-1.5.45-1.5 1m68 0c0 .55.675 1 1.5 1s1.5-.45 1.5-1-.675-1-1.5-1-1.5.45-1.5 1" fill="#1976D2" fill-rule="evenodd"/><path fill-opacity=".105" d="M126.2 14.512c.165 3.031.75 5.511 1.3 5.511s1.135-2.48 1.3-5.511c.245-4.511.009-5.512-1.3-5.512s-1.545 1.001-1.3 5.512m-1.498 10.155c.282.733 1.541 1.333 2.798 1.333 1.257 0 2.516-.6 2.798-1.333.363-.946-.451-1.334-2.798-1.334s-3.161.388-2.798 1.334m-3.064 5.833c-.475 1.238.551 1.5 5.862 1.5s6.337-.262 5.862-1.5c-.412-1.072-2.086-1.5-5.862-1.5-3.776 0-5.45.428-5.862 1.5M111 35.476c0 1.306 2.444 1.524 17.083 1.524 13.222 0 16.99-.283 16.668-1.25-.305-.918-4.838-1.323-17.083-1.524-14.387-.237-16.668-.066-16.668 1.25m-3.458 4.456c-.316.512.346 1.577 1.473 2.366 2.03 1.422 2.046 1.96 1.767 58.069-.155 31.148.086 56.633.535 56.633.45 0 .544.862.21 1.916-.335 1.054-.133 2.21.449 2.569.581.359.798 1.072.481 1.584-.345.56 5.7.931 15.151.931 8.649 0 15.429-.296 15.067-.658-.362-.362-.161-1.256.446-1.987.606-.731.847-1.996.535-2.81-.313-.815-.138-1.747.388-2.072.59-.365.956-22.384.956-57.532 0-37.294.345-56.941 1-56.941.55 0 1-.675 1-1.5 0-1.282-2.827-1.5-19.441-1.5-10.93 0-19.693.408-20.017.932M115 45c0 2.667.333 3 3 3s3-.333 3-3-.333-3-3-3-3 .333-3 3m9.713-2.379c-.392.392-.713 1.762-.713 3.046 0 2.008.497 2.333 3.566 2.333 3.301 0 3.543-.205 3.25-2.75-.241-2.096-.92-2.82-2.853-3.046-1.396-.163-2.859.025-3.25.417m9.176-.121c-.843 3.791-.177 5.016 2.883 5.313 3.003.292 3.228.1 3.228-2.75 0-2.737-.32-3.063-3-3.063-1.65 0-3.05.225-3.111.5M115 52.434c0 3.312.218 3.566 3.063 3.566 2.854 0 3.042-.222 2.75-3.25-.261-2.708-.772-3.303-3.063-3.566-2.545-.293-2.75-.051-2.75 3.25m9.607-1.852C123.098 54.515 123.89 56 127.5 56c2.784 0 3.5-.393 3.5-1.918 0-3.398-1.159-5.082-3.5-5.082-1.257 0-2.559.712-2.893 1.582m9.156-.37c-.223.667-.208 2.242.033 3.5.335 1.754 1.11 2.288 3.321 2.288 2.628 0 2.883-.309 2.883-3.5 0-3.2-.25-3.5-2.917-3.5-1.604 0-3.098.546-3.32 1.212m-18.054 7.412c-.39.39-.709 1.984-.709 3.543 0 2.494.366 2.833 3.063 2.833 2.854 0 3.042-.222 2.75-3.25-.229-2.38-.859-3.328-2.354-3.542-1.123-.161-2.36.027-2.75.416m8.958.043c-.367.366-.667 1.941-.667 3.5 0 2.571.324 2.833 3.5 2.833 3.61 0 4.402-1.485 2.893-5.418-.604-1.573-4.453-2.188-5.726-.915m9.73.535c-.511.714-.921 2.198-.913 3.298.012 1.53.796 2.075 3.334 2.318 3.209.308 3.308.209 3-3-.237-2.474-.849-3.394-2.406-3.616-1.148-.164-2.505.286-3.015 1M115 69c0 2.667.333 3 3 3s3-.333 3-3-.333-3-3-3-3 .333-3 3m9-.063c0 2.845.254 3.063 3.566 3.063 3.301 0 3.543-.205 3.25-2.75-.263-2.291-.858-2.802-3.566-3.063-3.028-.292-3.25-.104-3.25 2.75m9.81-2.413c-.288.287-.311 1.637-.05 3 .373 1.953 1.082 2.476 3.357 2.476 2.537 0 2.883-.36 2.883-3 0-2.627-.352-3-2.833-3-1.559 0-3.069.236-3.357.524m-18.101 7.1c-.39.39-.709 1.984-.709 3.543 0 2.494.366 2.833 3.063 2.833 2.854 0 3.042-.222 2.75-3.25-.229-2.38-.859-3.328-2.354-3.542-1.123-.161-2.36.027-2.75.416m8.958.043c-.367.366-.667 1.941-.667 3.5 0 2.571.324 2.833 3.5 2.833 3.61 0 4.402-1.485 2.893-5.418-.604-1.573-4.453-2.188-5.726-.915m9.73.535c-.511.714-.921 2.198-.913 3.298.012 1.53.796 2.075 3.334 2.318 3.209.308 3.308.209 3-3-.237-2.474-.849-3.394-2.406-3.616-1.148-.164-2.505.286-3.015 1m-44.82 3.985c-.772 2.477-.243 4.813 1.09 4.813.747 0 1.333-1.073 1.333-2.441 0-2.701-1.779-4.442-2.423-2.372m74.673-.525c-1.805.729-1.589 5.338.25 5.338 1 0 1.5-1 1.5-3 0-1.65-.113-2.964-.25-2.921-.137.043-.812.306-1.5.583M115 85c0 2.667.333 3 3 3s3-.333 3-3-.333-3-3-3-3 .333-3 3m9-.063c0 2.845.254 3.063 3.566 3.063 3.301 0 3.543-.205 3.25-2.75-.263-2.291-.858-2.802-3.566-3.063-3.028-.292-3.25-.104-3.25 2.75m9.81-2.413c-.288.287-.311 1.637-.05 3 .373 1.953 1.082 2.476 3.357 2.476 2.537 0 2.883-.36 2.883-3 0-2.627-.352-3-2.833-3-1.559 0-3.069.236-3.357.524m-49.1 3.099C82.948 87.386 84.466 88 90.583 88c4.82 0 6.473-.335 6.171-1.25-.448-1.359-10.84-2.331-12.044-1.127m73.928.877c-.475 1.238.551 1.5 5.862 1.5s6.337-.262 5.862-1.5c-.412-1.072-2.086-1.5-5.862-1.5-3.776 0-5.45.428-5.862 1.5m-42.929 3.124c-.39.39-.709 1.984-.709 3.543 0 2.494.366 2.833 3.063 2.833 2.854 0 3.042-.222 2.75-3.25-.229-2.38-.859-3.328-2.354-3.542-1.123-.161-2.36.027-2.75.416m8.958.043c-.367.366-.667 1.941-.667 3.5 0 2.571.324 2.833 3.5 2.833 3.61 0 4.402-1.485 2.893-5.418-.604-1.573-4.453-2.188-5.726-.915m9.73.535c-.511.714-.921 2.198-.913 3.298.012 1.53.796 2.075 3.334 2.318 3.209.308 3.308.209 3-3-.237-2.474-.849-3.394-2.406-3.616-1.148-.164-2.505.286-3.015 1M75 91c0 .624 5.833 1 15.5 1s15.5-.376 15.5-1-5.833-1-15.5-1-15.5.376-15.5 1m74 0c0 .624 5.833 1 15.5 1s15.5-.376 15.5-1-5.833-1-15.5-1-15.5.376-15.5 1m-70.918 25.92v21.787l2.459-.47 2.459-.47V98.233l2.478-.474c1.71-.326 2.61.025 2.905 1.134.235.884.357 10.021.272 20.306-.141 17.039 0 18.739 1.594 19.156 1.952.51 3.782-1.511 1.928-2.129-1.555-.519-1.508-4.476.073-6.151 1-1.06 1-1.417 0-1.783-.687-.252-1.25-1.456-1.25-2.675 0-1.219.563-2.813 1.25-3.542 1-1.06 1-1.417 0-1.783-1.479-.543-1.703-5.292-.25-5.292.55 0 1-.675 1-1.5s-.45-1.5-1-1.5-1-1.125-1-2.5.45-2.5 1-2.5 1-.675 1-1.5-.45-1.5-1-1.5c-1.393 0-1.253-3.813.197-5.366.658-.705 2.233-1.083 3.5-.841l2.303.44v21.184c0 21.38.349 23.583 3.73 23.583 1.073 0 1.312-4.634 1.235-23.933l-.096-23.934H78.082v21.787m73.585-21.253c-.367.366-.66 11.729-.652 25.25.009 13.521.346 24.133.75 23.583.404-.55 1.635-1.499 2.735-2.108 1.891-1.048 2.015-2.292 2.27-22.75L157.039 98l2.231.015c1.226.009 2.68.346 3.23.75 1.216.894 1.49 5.235.329 5.235-.456 0-.829.675-.829 1.5s.414 1.5.919 1.5c.544 0 .509 1.487-.085 3.638-.552 2.001-.629 3.914-.169 4.25 1.155.847 1.049 4.459-.157 5.32-.64.458-.587 1.113.152 1.852.764.764.854 2.148.27 4.184-.48 1.672-.564 3.539-.188 4.147.981 1.588.91 4.998-.12 5.747-1.41 1.025.215 2.717 2.129 2.217 1.6-.418 1.732-2.157 1.554-20.406L166.111 98H172V137.767l2.459.47 2.459.47V95.231l-11.048-.164c-7.781-.116-11.522.22-12.651 1.134-1.201.974-1.415.986-.852.049.805-1.339.396-1.679-.7-.583M115 101c0 2.667.333 3 3 3s3-.333 3-3-.333-3-3-3-3 .333-3 3m9-.063c0 2.845.254 3.063 3.566 3.063 3.301 0 3.543-.205 3.25-2.75-.263-2.291-.858-2.802-3.566-3.063-3.028-.292-3.25-.104-3.25 2.75m9.81-2.413c-.288.287-.311 1.637-.05 3 .373 1.953 1.082 2.476 3.357 2.476 2.537 0 2.883-.36 2.883-3 0-2.627-.352-3-2.833-3-1.559 0-3.069.236-3.357.524m-18.101 7.1c-.39.39-.709 1.984-.709 3.543 0 2.494.366 2.833 3.063 2.833 2.854 0 3.042-.222 2.75-3.25-.229-2.38-.859-3.328-2.354-3.542-1.123-.161-2.36.027-2.75.416m8.958.043c-.367.366-.667 1.941-.667 3.5 0 2.571.324 2.833 3.5 2.833 3.61 0 4.402-1.485 2.893-5.418-.604-1.573-4.453-2.188-5.726-.915m9.73.535c-.511.714-.921 2.198-.913 3.298.012 1.53.796 2.075 3.334 2.318 3.209.308 3.308.209 3-3-.237-2.474-.849-3.394-2.406-3.616-1.148-.164-2.505.286-3.015 1M115 117c0 2.667.333 3 3 3s3-.333 3-3-.333-3-3-3-3 .333-3 3m9 0c0 2.925.209 3.107 3.25 2.813 2.716-.262 3.25-.723 3.25-2.813 0-2.09-.534-2.551-3.25-2.813-3.041-.294-3.25-.112-3.25 2.813m9.889-2.5c-.843 3.791-.177 5.016 2.883 5.313 3.003.292 3.228.1 3.228-2.75 0-2.737-.32-3.063-3-3.063-1.65 0-3.05.225-3.111.5M115 125c0 2.667.333 3 3 3s3-.333 3-3-.333-3-3-3-3 .333-3 3m9-.063c0 2.845.254 3.063 3.566 3.063 3.301 0 3.543-.205 3.25-2.75-.263-2.291-.858-2.802-3.566-3.063-3.028-.292-3.25-.104-3.25 2.75m9.889-2.437c-.843 3.791-.177 5.016 2.883 5.313 3.003.292 3.228.1 3.228-2.75 0-2.737-.32-3.063-3-3.063-1.65 0-3.05.225-3.111.5M115 133c0 2.667.333 3 3 3s3-.333 3-3-.333-3-3-3-3 .333-3 3m9 0c0 2.925.209 3.107 3.25 2.813 2.716-.262 3.25-.723 3.25-2.813 0-2.09-.534-2.551-3.25-2.813-3.041-.294-3.25-.112-3.25 2.813m9.889-2.5c-.843 3.791-.177 5.016 2.883 5.313 3.003.292 3.228.1 3.228-2.75 0-2.737-.32-3.063-3-3.063-1.65 0-3.05.225-3.111.5M115 141c0 2.667.333 3 3 3s3-.333 3-3-.333-3-3-3-3 .333-3 3m9-.063c0 2.845.254 3.063 3.566 3.063 3.301 0 3.543-.205 3.25-2.75-.263-2.291-.858-2.802-3.566-3.063-3.028-.292-3.25-.104-3.25 2.75m9.889-2.437c-.843 3.791-.177 5.016 2.883 5.313 3.003.292 3.228.1 3.228-2.75 0-2.737-.32-3.063-3-3.063-1.65 0-3.05.225-3.111.5m-54.399 6.516c-.346.559-1.047.758-1.559.441-.512-.316-.931-.072-.931.543s-.412.864-.915.553c-.503-.311-1.065-.225-1.25.191-.71 1.601-6.703 4.278-7.325 3.272-.816-1.321-7.204-1.32-8.02 0-.346.559-1.031.768-1.523.464-1.374-.849-9.006 7.256-8.376 8.896.3.782.065 1.719-.523 2.082-3.534 2.184.905 2.554 27.682 2.307 24.955-.23 28.704-.463 28.4-1.765-.193-.825-.479-2.608-.636-3.962-.157-1.354-.79-2.63-1.406-2.835-.616-.206-.864-.789-.551-1.295.313-.507-.134-1.192-.994-1.522-.859-.33-1.563-1.227-1.563-1.993S99.373 149 98.607 149s-1.663-.704-1.993-1.563c-.33-.86-1.053-1.284-1.607-.941-.554.342-1.007.097-1.007-.544s-.675-.907-1.5-.59c-.825.316-1.5.139-1.5-.393 0-1.294-10.709-1.25-11.51.047m81.76.421c-1.787.806-3.25 1.938-3.25 2.515 0 .576-.492.935-1.093.798s-1.614.631-2.25 1.708c-.636 1.077-1.719 2.571-2.407 3.321-1.251 1.364-1.614 2.691-1.342 4.896.08.646-.317 1.46-.881 1.809-.565.349-1.027 1.282-1.027 2.075 0 1.221 4.343 1.441 28.433 1.441h28.433l-.085-3c-.047-1.65-.542-3-1.1-3s-.763-.251-.457-.558c.785-.784-6.31-7.507-7.286-6.904-.44.272-1.082.037-1.428-.522-.797-1.29-6.796-1.33-8.073-.053-.617.617-2.715-.176-5.844-2.212-5.788-3.765-14.845-4.796-20.343-2.314M115 149c0 2.667.333 3 3 3s3-.333 3-3-.333-3-3-3-3 .333-3 3m9 0c0 2.925.209 3.107 3.25 2.813 2.716-.262 3.25-.723 3.25-2.813 0-2.09-.534-2.551-3.25-2.813-3.041-.294-3.25-.112-3.25 2.813m9.889-2.5c-.843 3.791-.177 5.016 2.883 5.313 3.003.292 3.228.1 3.228-2.75 0-2.737-.32-3.063-3-3.063-1.65 0-3.05.225-3.111.5M115 157c0 2.667.333 3 3 3s3-.333 3-3-.333-3-3-3-3 .333-3 3m9-.063c0 2.845.254 3.063 3.566 3.063 3.301 0 3.543-.205 3.25-2.75-.263-2.291-.858-2.802-3.566-3.063-3.028-.292-3.25-.104-3.25 2.75m9.889-2.437c-.843 3.791-.177 5.016 2.883 5.313 3.003.292 3.228.1 3.228-2.75 0-2.737-.32-3.063-3-3.063-1.65 0-3.05.225-3.111.5M1.937 180c-.052.43-.016 26.243.042 29.75.013.782 1.475 1.25 3.904 1.25 4.206 0 5.497-1.766 4.032-5.516-.426-1.091-.806-3.447-.845-5.234-.059-2.745.287-3.25 2.23-3.25 3.518 0 4.7 1.91 4.7 7.593 0 5.629.739 6.407 6.082 6.407 2.406 0 2.918-.417 2.918-2.378 0-1.307-.723-2.977-1.606-3.71-1.186-.984-1.479-2.464-1.12-5.651.385-3.415.121-4.514-1.262-5.255-.962-.514-2.033-.651-2.381-.304-.347.347-.631-.185-.631-1.182 0-.998 1.575-3.736 3.5-6.085 4.704-5.741 4.565-7.048-.729-6.858-4.001.144-4.269.344-4.968 3.71-.62 2.984-4.794 8.713-6.348 8.713-.843 0-.463-6.877.41-7.416.475-.294.813-1.507.75-2.696-.098-1.838-.749-2.178-4.366-2.274-2.338-.063-4.278.111-4.312.386m30.452 4.98c-2.917 1.179-3.203 2.358-3.222 13.302-.013 7.42.331 9.887 1.517 10.87 1.832 1.521 13.316 2.137 13.316.714 0-.541.384-.747.854-.456 1.697 1.049 3.146-4.668 3.146-12.412 0-7.139-.247-8.154-2.545-10.453-1.952-1.951-3.526-2.53-6.75-2.482-2.313.035-5.155.448-6.316.917m23.611.313c-2.402 1.215-2.507 1.666-2.684 11.552-.226 12.672.546 13.864 9.043 13.94 3.094.028 5.884-.37 6.202-.883.317-.514.884-.745 1.258-.514.375.232.523-1.561.33-3.983-.39-4.908-2.304-5.875-4.264-2.155-1.641 3.117-2.86 3.718-5.293 2.611-1.859-.847-2.075-1.74-1.94-8.024.107-4.957.626-7.544 1.736-8.654 1.445-1.445 1.831-1.347 4.403 1.117 3.903 3.739 5.209 3.444 5.209-1.175 0-3.54-.27-3.929-3.125-4.5-4.711-.942-8.102-.734-10.875.668m42.558-.553c-4.018.411-6.855 2.757-6.061 5.01.242.688.004 1.25-.528 1.25-.533 0-.969.873-.969 1.941s-.45 2.219-1 2.559c-.55.34-1 .171-1-.376s-.523-2.261-1.161-3.809c-.639-1.548-1.066-3.224-.948-3.723.353-1.496-2.16-2.56-6.082-2.577-4.497-.018-5.49 1.296-3.395 4.494 2.113 3.225 2.172 13.76.086 15.491-.825.685-1.5 2.315-1.5 3.622 0 2.152.428 2.378 4.5 2.378 4.029 0 4.5-.241 4.5-2.3 0-1.265-.415-2.727-.923-3.25-1.36-1.4-1.708-10.74-.417-11.17 1.087-.362 2.156 2.031 3.002 6.72.98 5.423 4.873 5.961 5.568.769.199-1.481.647-2.979.997-3.329.349-.35.415-1.208.147-1.909-.269-.7.212-1.542 1.069-1.871.868-.333 1.6-.058 1.654.621.287 3.617-.375 9.341-1.177 10.169-.506.523-.92 1.985-.92 3.25 0 2.011.495 2.3 3.946 2.3h3.946l.304-13.502c.167-7.426.304-13.425.304-13.332 0 .094-1.774.352-3.942.574m12.338 1.51c-2.237 2.101-2.386 2.904-2.248 12.098.086 5.762.614 10.314 1.272 10.972 1.385 1.385 13.08 1.95 13.08.631 0-.523.563-.838 1.25-.701.688.138 1.138-.312 1-1-.137-.687.223-1.25.801-1.25.669 0 .985-3.233.87-8.9-.159-7.883-.455-9.197-2.591-11.5-3.227-3.48-9.915-3.655-13.434-.35m49.649.295c-2.294 2.295-2.545 3.319-2.545 10.386 0 7.354 1.784 13.952 3.348 12.387.359-.358.652-.171.652.415 0 1.576 10.1 1.278 12.75-.375 2.089-1.304 2.25-2.117 2.25-11.381 0-6.355-.384-9.977-1.059-9.977-.582 0-.78-.451-.44-1.002.846-1.368-3.788-2.998-8.521-2.998-2.834 0-4.58.691-6.435 2.545m-27.589-1.343c-.024.164-.096 5.923-.159 12.798l-.114 12.5 4.158.307c3.824.283 4.159.112 4.159-2.127 0-1.339-.693-3.01-1.541-3.714-1.179-.979-1.472-2.941-1.25-8.372l.291-7.094 3.862-.317 3.861-.317-.361 10.817-.362 10.817 4.25.307c3.685.267 4.25.042 4.25-1.69 0-1.1-.45-2.277-1-2.617-.55-.34-1-4.165-1-8.5s.45-8.16 1-8.5c.55-.34 1-1.438 1-2.439 0-1.636-1.071-1.839-10.5-1.99-5.775-.092-10.52-.033-10.544.131m49.546 2.082c.086 1.156.682 2.277 1.327 2.492.756.252 1.171 3.051 1.171 7.901 0 6.461-.258 7.578-1.847 7.993-2.63.688-1.675 5.33 1.096 5.33 4.193 0 5.751-3.581 5.751-13.219v-8.914l2.75.317c2.693.309 2.756.47 3.047 7.719.17 4.238-.151 7.851-.75 8.45-.576.576-1.047 2.108-1.047 3.404 0 2.149.37 2.331 4.159 2.05l4.158-.307-.072-12.5-.072-12.5-9.912-.159c-9.502-.153-9.907-.072-9.759 1.943m26.46-2.075c-.02.16-.113 5.916-.206 12.791l-.168 12.5 4.206.307c3.438.252 4.206-.008 4.206-1.421 0-.951-.602-2.439-1.338-3.307-1.156-1.364-.803-2.048 2.588-5.024l3.925-3.445-.18 4.445c-.359 8.836-.317 8.945 3.388 8.945 2.796 0 3.465-.425 3.852-2.449.257-1.346.047-2.869-.467-3.383-.841-.841-.606-12.636.351-17.668.33-1.73-.159-2-3.619-2-3.779 0-4 .166-4 3.005 0 3.438-3.509 8.495-5.894 8.495-2.157 0-2.251-6.539-.106-7.362.825-.316 1.5-1.401 1.5-2.411 0-1.436-.872-1.887-4-2.072-2.2-.13-4.017-.105-4.038.054M233 189.613c0 3.72.304 4.387 2 4.387 1.1 0 2-.567 2-1.259 0-.693.95-1.853 2.112-2.579 2.108-1.317 2.112-1.299 1.75 9.509L240.5 210.5l4.25.307c3.948.286 4.25.13 4.25-2.19 0-1.375-.45-2.777-1-3.117-1.277-.79-1.317-15.186-.044-15.973.526-.325 1.703.549 2.615 1.941.912 1.393 2.507 2.532 3.544 2.532 1.57 0 1.885-.759 1.885-4.546v-4.547l-11.5.159-11.5.159v4.388M36.2 189.2c-.713.713-1.2 4.148-1.2 8.465 0 5.978.32 7.436 1.804 8.23 5.25 2.81 8.472-8.89 4.128-14.991-2.292-3.219-2.972-3.464-4.732-1.704m78.5 1.336c-2.625 3.606-2.035 13.179.934 15.142 1.863 1.233 2.339 1.207 3.75-.205 3.192-3.192 1.549-17.567-1.994-17.442-.49.018-1.7 1.145-2.69 2.505m50.857-.313c-2.146 3.063-2.107 13.084.059 15.25 1.411 1.412 1.887 1.438 3.75.205 2.873-1.899 3.54-11.365 1.068-15.139-2.041-3.114-2.879-3.169-4.877-.316M145.335 227.8c-.001.802.96 1.185 2.505 1 3.565-.427 3.885-2.541.365-2.408-1.63.061-2.869.669-2.87 1.408M66 232c0 .55.477 1 1.059 1s.781-.45.441-1-.816-1-1.059-1-.441.45-.441 1m5 5.941c0 3.818.445 7.216.989 7.552.568.351.733-.054.388-.954-.331-.86.012-2.307.761-3.214 1.064-1.289 1.089-1.742.112-2.071-1.514-.509-1.689-6.254-.191-6.254.582 0 .781-.45.441-1-1.589-2.571-2.5-.406-2.5 5.941m6-5.91c0 .533.45.969 1 .969s1 1.35 1 3-.45 3-1 3-1 .436-1 .969c0 .532.675.709 1.5.393.968-.372 1.5-1.919 1.5-4.362s-.532-3.99-1.5-4.362c-.825-.316-1.5-.139-1.5.393m6.25-.311c-1.823.651-1.613 7.927.25 8.642.825.316 1.5.139 1.5-.393 0-.533-.505-.969-1.122-.969-.751 0-.688-.524.189-1.58.771-.929 2.274-1.397 3.646-1.135 1.284.246 2.576.057 2.87-.419.538-.871-.926-1.262-3.436-.917-.744.102-2.081-.094-2.972-.435-1.38-.53-1.406-.753-.176-1.513 1.657-1.024 1.117-1.947-.749-1.281m4.75.311c0 .533.675.969 1.5.969s1.5-.177 1.5-.393c0-.216-.675-.652-1.5-.969-.825-.316-1.5-.139-1.5.393m11.086 1.219c-.106 3.394-2.76 3.721-4.055.5-.732-1.823-.894-1.395-.852 2.25.029 2.475.259 3.713.51 2.75.692-2.648 4.292-2.239 4.397.5.076 1.99.182 1.932.913-.5.456-1.512.456-3.988 0-5.5l-.827-2.75-.086 2.75M108 232v1.75c0 .412.675.75 1.5.75s1.5-.338 1.5-.75V232c0-.55-.675-1-1.5-1s-1.5.45-1.5 1m16.218 1.25c-1.106 2.603-4.218 3.894-4.218 1.75 0-.55-.45-1-1-1s-1 .675-1 1.5c0 .987.987 1.5 2.883 1.5 2.099 0 3.09.612 3.641 2.25.731 2.17.773 2.152 1.184-.5.233-1.512.257-3.988.051-5.5l-.373-2.75-1.168 2.75M138.3 236c0 3.025.187 4.262.416 2.75.229-1.512.229-3.988 0-5.5s-.416-.275-.416 2.75m4.7-.059c0 5.298.804 6.112 3.438 3.478 1.605-1.605 1.196-3.929-.507-2.876-.512.316-.931-.55-.931-1.925s-.45-2.778-1-3.118c-.616-.381-1 1.323-1 4.441m6.835-4.268c-2.487.658-3.182 3.327-.867 3.327 1.4 0 2.012.862 2.309 3.25.276 2.228.453 1.598.563-2 .088-2.887.047-5.198-.09-5.134-.137.064-.999.314-1.915.557m12.845 1.442c-.677 2.588.465 2.975 2.611.884 1.72-1.675 1.713-1.765-.164-2.256-1.34-.35-2.109.081-2.447 1.372m10.507 1.016c-.273 3.579.625 7.103 1.649 6.47.88-.544.197-9.601-.724-9.601-.378 0-.794 1.409-.925 3.131M179 236c0 2.933.294 5.039.654 4.679.359-.359.654-2.465.654-4.679 0-2.214-.295-4.32-.654-4.679-.36-.36-.654 1.746-.654 4.679m5-.5c0 2.475.45 4.5 1 4.5s1-1.111 1-2.469c0-1.779.417-2.308 1.494-1.895.822.316 1.246.976.941 1.469-.304.492-.099.895.456.895s1.369-.596 1.809-1.325c.44-.729 1.587-1.615 2.55-1.969 2.376-.873 2.205-2.354-.349-3.022-1.154-.301-1.851-.3-1.548.003.563.563-1.746 3.313-2.782 3.313-.314 0-.571-.627-.571-1.393 0-1.162-1.985-2.607-3.582-2.607-.23 0-.418 2.025-.418 4.5m-118-.437c0 .584-.787.983-1.75.885-3.463-.353-4.25.089-4.25 2.385 0 1.408.595 2.334 1.5 2.334.825 0 1.5-.375 1.5-.834 0-.458-.45-.833-1-.833s-1-.45-1-1 1.575-1 3.5-1c2.444 0 3.5-.452 3.5-1.5 0-.825-.45-1.5-1-1.5s-1 .478-1 1.063m63.192.687c.256 1.323 1.128 1.671 3.573 1.425 1.843-.186 3.235.137 3.235.75 0 .591-.45 1.075-1 1.075s-1 .436-1 .969c0 .532.675.709 1.5.393 1.81-.695 2.012-4.315.25-4.477-.687-.063-2.037-.035-3 .063-.963.098-1.75-.301-1.75-.885 0-.585-.483-1.063-1.073-1.063-.591 0-.921.787-.735 1.75m37.387-.878c-.383.62-.235 1.128.331 1.128.565 0 .8.592.522 1.316-.277.723.184 2.636 1.026 4.25l1.53 2.934.006-2.75c.003-1.512-.471-2.75-1.053-2.75s-.783-.446-.446-.992.201-1.729-.302-2.628c-.626-1.118-1.137-1.279-1.614-.508m-60.174.973c.392.635.309 1.155-.185 1.155-.968 0-3.22 4.362-3.22 6.236 0 1.747 3.567-2.472 4.229-5.003.321-1.227.106-2.526-.477-2.887-.624-.385-.767-.179-.347.499m5.202-.018c-.813 1.315.308 4.088 2.567 6.347 1.451 1.451 1.826 1.523 1.826.35 0-2.217-3.687-7.839-4.393-6.697m48.542 3.174c-.575 1.65-.645 2.999-.156 2.999 1.836 0 3.512-4.57 2.015-5.495-.447-.276-1.284.847-1.859 2.496m33.502-.533c-.31.807-.227 1.676.185 1.931.412.254.814-.406.894-1.468.173-2.297-.298-2.499-1.079-.463M66 240.059c0 .582.45.781 1 .441s1-.816 1-1.059-.45-.441-1-.441-1 .477-1 1.059m63.5-.059c.34.55.816 1 1.059 1s.441-.45.441-1-.477-1-1.059-1-.781.45-.441 1" fill="#1976D2" fill-rule="evenodd"/></svg>