<?xml version="1.0" encoding="UTF-8"?>
<svg width="164px" height="176px" viewBox="0 0 164 176" version="1.1" xmlns="http://www.w3.org/2000/svg" xmlns:xlink="http://www.w3.org/1999/xlink">
    <!-- Generator: sketchtool 60.1 (101010) - https://sketch.com -->
    <title>02E3E9B3-D4C9-429F-BC88-16B377D4BA5C</title>
    <desc>Created with sketchtool.</desc>
    <defs>
        <rect id="path-1" x="0" y="0" width="164" height="176"></rect>
        <rect id="path-3" x="0" y="0.487804878" width="150" height="161"></rect>
    </defs>
    <g id="Актуальное" stroke="none" stroke-width="1" fill="none" fill-rule="evenodd">
        <g id="illustration" transform="translate(-864.000000, -168.000000)">
            <g id="illustration_main_benefit_5" transform="translate(864.000000, 168.000000)">
                <mask id="mask-2" fill="white">
                    <use xlink:href="#path-1"></use>
                </mask>
                <g id="Mask"></g>
                <g id="calm-copy" mask="url(#mask-2)">
                    <g transform="translate(-3.000000, 11.512195)">
                        <mask id="mask-4" fill="white">
                            <use xlink:href="#path-3"></use>
                        </mask>
                        <g id="Mask" stroke="none" fill="none"></g>
                        <g id="calm" stroke="none" stroke-width="1" fill="none" fill-rule="evenodd" mask="url(#mask-4)">
                            <g transform="translate(7.000000, 9.487805)">
                                <path d="M8.41370436,89.687991 L0.279803797,128.507608 L70.9443608,129.004793 L64.8462585,84.9190198 C60.9153523,70.6425816 50.0952291,60.9087256 37.7853789,60.576108 C23.495099,60.1903759 11.0707221,72.5041957 8.41370436,89.687991 Z" id="Stroke-9" stroke="#1C1B28" stroke-width="4" fill="#FFFFFF" stroke-linecap="round" stroke-linejoin="round"></path>
                                <g id="Group" stroke="none" stroke-width="1" fill="none" transform="translate(39.714286, 30.000000) scale(-1, 1) translate(-39.714286, -30.000000) translate(11.714286, 0.000000)">
                                    <path d="M4.28571429,34.8214286 C4.28571429,48.7269384 15.5585651,60 29.4638099,60 C43.3700063,60 54.6428571,48.7269384 54.6428571,34.8214286 C54.6428571,20.9159187 43.3700063,9.64285714 29.4638099,9.64285714 C15.5585651,9.64285714 4.28571429,20.9159187 4.28571429,34.8214286" id="Fill-13" stroke="#1C1B28" stroke-width="4" fill="#FFFFFF" stroke-linecap="round" stroke-linejoin="round"></path>
                                    <path d="M16.0714286,32.1428571 C16.0714286,33.9178677 17.5114134,35.3571429 19.2861898,35.3571429 C21.0600152,35.3571429 22.5,33.9178677 22.5,32.1428571 C22.5,30.3678465 21.0600152,28.9285714 19.2861898,28.9285714 C17.5114134,28.9285714 16.0714286,30.3678465 16.0714286,32.1428571" id="Fill-17" fill="#1C1B28"></path>
                                    <path d="M32.0938269,27.1693783 C25.6140024,27.5373998 20.4727069,22.457759 16.4001811,17.7470834 C14.31398,15.3351269 13.31055,11.8823299 12.920379,8.70696465 C12.5302081,5.53065571 13.9592792,2.00331085 16.8276889,0.633138369 C19.4692769,-0.629458588 22.6681185,0.148104859 25.1939619,1.63245838 C27.7188719,3.11775555 29.1302079,6.01380193 31.5281724,7.70103912 C35.0434445,10.1743326 41.4737975,11.1443996 44.9442653,13.6828045 C52.1577605,18.9606108 55.4340763,27.4288807 55.7131698,36.4133243 C55.7654415,38.1052797 53.9695351,42.9357983 52.7924884,44.1427202 C51.6462446,45.3175582 48.6032846,45.092027 47.0426009,44.6032189 C44.3963459,43.7756423 40.4983702,42.1459675 37.5515529,40.0020061 C30.3417914,34.7562838 32.0938269,27.1693783 32.0938269,27.1693783" id="Fill-19" fill="#1C1B28"></path>
                                    <g id="Group-24" transform="translate(0.000000, 33.214286)">
                                        <path d="M6.99416667,0.0451205357 L3.5487963,0.203323661 C1.89416667,0.203323661 0.553425926,1.50962946 0.553425926,3.12058929 C0.553425926,4.73245312 1.89416667,6.03785491 3.5487963,6.03785491 L7.40805556,6.03785491" id="Fill-21" fill="#FCFDFD"></path>
                                        <path d="M6.99416667,0.0451205357 L3.5487963,0.203323661 C1.89416667,0.203323661 0.553425926,1.50962946 0.553425926,3.12058929 C0.553425926,4.73245312 1.89416667,6.03785491 3.5487963,6.03785491 L7.40805556,6.03785491" id="Stroke-23" stroke="#1C1B28" stroke-width="4" stroke-linecap="round" stroke-linejoin="round"></path>
                                    </g>
                                    <path d="M20.3571429,47.1428571 C18.3605042,50.2941176 14.9571429,52.2636555 10.7142857,51.0819328" id="Stroke-53" stroke="#1C1B28" stroke-width="4" stroke-linecap="round" stroke-linejoin="round"></path>
                                </g>
                                <g id="Group-2" stroke="none" stroke-width="1" fill="none" transform="translate(70.500000, 100.000000) scale(-1, 1) translate(-70.500000, -100.000000) translate(6.500000, 50.000000)">
                                    <g id="phone" transform="translate(29.166667, 30.833333) rotate(-50.000000) translate(-29.166667, -30.833333) translate(14.166667, 5.833333)">
                                        <path d="M23.1587119,50 L6.4246214,50 C2.87641926,50 0,47.016016 0,43.3351275 L0,6.66487251 C0,2.98414049 2.87641926,0 6.4246214,0 L23.1587119,0 C26.7069141,0 29.5833333,2.98414049 29.5833333,6.66487251 L29.5833333,43.3351275 C29.5833333,47.016016 26.7069141,50 23.1587119,50" id="Fill-1" fill="#1C1B28"></path>
                                        <path d="M10.809468,4.47761194 C10.1495577,4.47761194 9.61458333,4.14354572 9.61458333,3.73134328 C9.61458333,3.31923779 10.1495577,2.98507463 10.809468,2.98507463 L18.7740206,2.98507463 C19.4337757,2.98507463 19.96875,3.31923779 19.96875,3.73134328 C19.96875,4.14354572 19.4337757,4.47761194 18.7740206,4.47761194 L10.809468,4.47761194 Z" id="Fill-4" fill="#FCFDFD"></path>
                                        <path d="M17.0104167,45.5224625 C17.0104167,46.7589392 16.0169928,47.761194 14.7915929,47.761194 C13.566193,47.761194 12.5729167,46.7589392 12.5729167,45.5224625 C12.5729167,44.2859859 13.566193,43.2835821 14.7915929,43.2835821 C16.0169928,43.2835821 17.0104167,44.2859859 17.0104167,45.5224625" id="Fill-11" fill="#FFFFFF"></path>
                                        <polygon id="Fill-8" fill="#FED141" points="4.24390855 38.5512191 24.9105756 38.5512191 24.9105756 8.2485068 4.24390855 8.2485068"></polygon>
                                    </g>
                                    <path d="M95.0883294,14.6441589 C86.8046161,30.7617812 82.9327726,45.0015413 77.4024225,59.8287848 C66.284413,54.5821265 58.7308987,52.0151734 47.612291,46.7691117 C44.5744562,45.3353346 36.7926898,41.0199441 33.9204744,44.3934814 C31.048259,47.7670188 35.4792456,50.6431521 38.6738784,51.6886947 C36.5941481,50.5394833 32.3646752,48.188886 29.333417,51.9718142 C26.3021589,55.7547423 32.6339856,59.0620931 34.5458677,59.9377013 C33.0280263,58.8347374 27.990967,56.8763207 26.5324127,60.0814064 C25.5600432,62.2181301 26.790719,64.3986639 30.22444,66.6230075 C47.4241925,79.3857522 61.2213313,87.248242 71.6158564,90.2104768 C76.9583218,91.7329742 86.6567569,92.9607535 91.7681366,90.8446617 C96.3629379,88.9416721 100.202524,79.798712 102.28309,75.2912547 C110.867442,56.6918812 113.526736,45.5800388 119.399221,29.0217094 C120.587366,25.6713999 120.220867,21.9437855 119.508141,18.4631809 C119.444918,18.1573316 119.378705,17.8574462 119.307108,17.564122 C117.56671,10.42299 110.000736,6.36898358 103.002083,8.67973295 C100.232755,9.59388241 96.6978053,11.5118833 95.0883294,14.6441589 Z" id="Stroke-3" stroke="#1C1B28" stroke-width="4" fill="#FFFFFF" stroke-linecap="round" stroke-linejoin="round" transform="translate(73.190131, 50.002623) rotate(10.000000) translate(-73.190131, -50.002623) "></path>
                                    <path d="M88.6011341,41.820002 L116.235113,53.5295614 L122.990201,35.074733 C125.678778,27.8379363 122.897186,17.8376494 115.700662,15.0177189 C108.685231,12.2698513 100.734505,15.4676726 97.5876193,22.3034024 L88.6011341,41.820002 Z" id="Fill-11" fill="#1C1B28" transform="translate(106.299327, 33.782114) rotate(10.000000) translate(-106.299327, -33.782114) "></path>
                                </g>
                            </g>
                        </g>
                    </g>
                </g>
            </g>
        </g>
    </g>
</svg>